<?xml version="1.0" encoding="UTF-8"?>
<svg xmlns="http://www.w3.org/2000/svg" xmlns:xlink="http://www.w3.org/1999/xlink" width="854" height="480" viewBox="0 0 854 480">
<defs>
<g>
<g id="glyph-0-0">
<path d="M 0.125 0 L 0.125 -0.1875 L 0.171875 -0.1875 C 0.273438 -0.1875 0.363281 -0.203125 0.4375 -0.234375 C 0.507812 -0.273438 0.546875 -0.363281 0.546875 -0.5 L 0.546875 -2.171875 L 0.140625 -2.171875 L 0.140625 -2.375 L 0.546875 -2.375 L 0.546875 -2.59375 C 0.546875 -2.863281 0.613281 -3.066406 0.75 -3.203125 C 0.894531 -3.347656 1.085938 -3.421875 1.328125 -3.421875 C 1.554688 -3.421875 1.71875 -3.390625 1.8125 -3.328125 C 1.90625 -3.273438 1.953125 -3.203125 1.953125 -3.109375 C 1.953125 -3.023438 1.914062 -2.960938 1.84375 -2.921875 C 1.78125 -2.878906 1.691406 -2.859375 1.578125 -2.859375 C 1.578125 -2.941406 1.554688 -3.019531 1.515625 -3.09375 C 1.472656 -3.175781 1.398438 -3.21875 1.296875 -3.21875 C 1.160156 -3.21875 1.066406 -3.164062 1.015625 -3.0625 C 0.972656 -2.96875 0.953125 -2.828125 0.953125 -2.640625 L 0.953125 -2.375 L 1.578125 -2.375 L 1.578125 -2.171875 L 0.953125 -2.171875 L 0.953125 -0.5 C 0.953125 -0.363281 0.988281 -0.273438 1.0625 -0.234375 C 1.132812 -0.203125 1.222656 -0.1875 1.328125 -0.1875 L 1.484375 -0.1875 L 1.484375 0 Z "/>
</g>
<g id="glyph-0-1">
<path d="M 1.21875 0.046875 C 0.976562 0.046875 0.796875 -0.0195312 0.671875 -0.15625 C 0.546875 -0.300781 0.484375 -0.523438 0.484375 -0.828125 L 0.484375 -1.890625 C 0.484375 -2.015625 0.445312 -2.09375 0.375 -2.125 C 0.300781 -2.164062 0.210938 -2.1875 0.109375 -2.1875 L 0.109375 -2.375 L 0.890625 -2.375 L 0.890625 -0.84375 C 0.890625 -0.65625 0.921875 -0.503906 0.984375 -0.390625 C 1.054688 -0.285156 1.179688 -0.234375 1.359375 -0.234375 C 1.554688 -0.234375 1.695312 -0.300781 1.78125 -0.4375 C 1.875 -0.570312 1.921875 -0.742188 1.921875 -0.953125 L 1.921875 -1.875 C 1.921875 -2.007812 1.882812 -2.09375 1.8125 -2.125 C 1.738281 -2.164062 1.65625 -2.1875 1.5625 -2.1875 L 1.546875 -2.1875 L 1.546875 -2.375 L 2.34375 -2.375 L 2.34375 -0.484375 C 2.34375 -0.347656 2.378906 -0.265625 2.453125 -0.234375 C 2.523438 -0.203125 2.609375 -0.1875 2.703125 -0.1875 L 2.71875 -0.1875 L 2.71875 0 L 2.015625 0 L 1.953125 -0.359375 L 1.9375 -0.359375 C 1.84375 -0.191406 1.734375 -0.0820312 1.609375 -0.03125 C 1.484375 0.0195312 1.351562 0.046875 1.21875 0.046875 Z "/>
</g>
<g id="glyph-0-2">
<path d="M 0.125 0 L 0.125 -0.1875 L 0.15625 -0.1875 C 0.257812 -0.1875 0.347656 -0.203125 0.421875 -0.234375 C 0.492188 -0.273438 0.53125 -0.363281 0.53125 -0.5 L 0.53125 -1.890625 C 0.53125 -2.015625 0.492188 -2.09375 0.421875 -2.125 C 0.347656 -2.164062 0.265625 -2.1875 0.171875 -2.1875 L 0.140625 -2.1875 L 0.140625 -2.375 L 0.859375 -2.375 L 0.921875 -2.015625 L 0.9375 -2.015625 C 1.03125 -2.179688 1.132812 -2.289062 1.25 -2.34375 C 1.363281 -2.394531 1.492188 -2.421875 1.640625 -2.421875 C 1.867188 -2.421875 2.050781 -2.351562 2.1875 -2.21875 C 2.320312 -2.082031 2.390625 -1.859375 2.390625 -1.546875 L 2.390625 -0.5 C 2.390625 -0.363281 2.414062 -0.273438 2.46875 -0.234375 C 2.53125 -0.203125 2.613281 -0.1875 2.71875 -0.1875 L 2.734375 -0.1875 L 2.734375 0 L 1.96875 0 L 1.96875 -1.53125 C 1.96875 -1.71875 1.929688 -1.863281 1.859375 -1.96875 C 1.785156 -2.082031 1.660156 -2.140625 1.484375 -2.140625 C 1.347656 -2.140625 1.238281 -2.101562 1.15625 -2.03125 C 1.082031 -1.96875 1.023438 -1.878906 0.984375 -1.765625 C 0.953125 -1.660156 0.9375 -1.546875 0.9375 -1.421875 L 0.9375 -0.484375 C 0.9375 -0.347656 0.972656 -0.265625 1.046875 -0.234375 C 1.117188 -0.203125 1.203125 -0.1875 1.296875 -0.1875 L 1.3125 -0.1875 L 1.3125 0 Z "/>
</g>
<g id="glyph-0-3">
<path d="M 1.25 0.046875 C 1.0625 0.046875 0.890625 0.00390625 0.734375 -0.078125 C 0.578125 -0.160156 0.457031 -0.289062 0.375 -0.46875 C 0.289062 -0.644531 0.25 -0.878906 0.25 -1.171875 C 0.25 -1.492188 0.289062 -1.742188 0.375 -1.921875 C 0.457031 -2.109375 0.570312 -2.238281 0.71875 -2.3125 C 0.875 -2.382812 1.046875 -2.421875 1.234375 -2.421875 C 1.359375 -2.421875 1.476562 -2.40625 1.59375 -2.375 C 1.71875 -2.34375 1.816406 -2.289062 1.890625 -2.21875 C 1.960938 -2.15625 2 -2.070312 2 -1.96875 C 2 -1.863281 1.96875 -1.789062 1.90625 -1.75 C 1.84375 -1.707031 1.742188 -1.6875 1.609375 -1.6875 C 1.609375 -1.832031 1.582031 -1.953125 1.53125 -2.046875 C 1.476562 -2.148438 1.378906 -2.203125 1.234375 -2.203125 C 1.117188 -2.203125 1.019531 -2.171875 0.9375 -2.109375 C 0.851562 -2.054688 0.785156 -1.953125 0.734375 -1.796875 C 0.691406 -1.648438 0.671875 -1.445312 0.671875 -1.1875 C 0.671875 -0.863281 0.722656 -0.625 0.828125 -0.46875 C 0.929688 -0.320312 1.101562 -0.25 1.34375 -0.25 C 1.476562 -0.25 1.597656 -0.273438 1.703125 -0.328125 C 1.804688 -0.390625 1.882812 -0.460938 1.9375 -0.546875 C 1.988281 -0.515625 2.015625 -0.457031 2.015625 -0.375 C 2.015625 -0.3125 1.984375 -0.242188 1.921875 -0.171875 C 1.867188 -0.109375 1.785156 -0.0546875 1.671875 -0.015625 C 1.566406 0.0234375 1.425781 0.046875 1.25 0.046875 Z "/>
</g>
</g>
</defs>
<g fill="rgb(100%, 100%, 100%)" fill-opacity="1">
<use xlink:href="#glyph-0-0" x="30" y="24.750977"/>
<use xlink:href="#glyph-0-1" x="32" y="24.750977"/>
<use xlink:href="#glyph-0-2" x="35" y="24.750977"/>
<use xlink:href="#glyph-0-3" x="38" y="24.750977"/>
</g>
</svg>
