<?xml version="1.0" encoding="UTF-8"?>
<svg xmlns="http://www.w3.org/2000/svg" xmlns:xlink="http://www.w3.org/1999/xlink" width="854" height="480" viewBox="0 0 854 480">
<defs>
<g>
<g id="glyph-0-0">
<path d="M 1.359375 0.0625 C 1.085938 0.0625 0.875 0.03125 0.71875 -0.03125 C 0.5625 -0.09375 0.453125 -0.164062 0.390625 -0.25 C 0.335938 -0.34375 0.3125 -0.425781 0.3125 -0.5 C 0.3125 -0.601562 0.335938 -0.679688 0.390625 -0.734375 C 0.453125 -0.796875 0.539062 -0.828125 0.65625 -0.828125 C 0.65625 -0.671875 0.707031 -0.535156 0.8125 -0.421875 C 0.925781 -0.316406 1.097656 -0.265625 1.328125 -0.265625 C 1.484375 -0.265625 1.617188 -0.296875 1.734375 -0.359375 C 1.859375 -0.421875 1.953125 -0.519531 2.015625 -0.65625 C 2.085938 -0.789062 2.125 -0.976562 2.125 -1.21875 C 2.125 -1.507812 2.046875 -1.722656 1.890625 -1.859375 C 1.734375 -2.003906 1.53125 -2.078125 1.28125 -2.078125 C 1.082031 -2.078125 0.9375 -2.0625 0.84375 -2.03125 C 0.75 -2.007812 0.664062 -1.984375 0.59375 -1.953125 L 0.46875 -2 L 0.640625 -3.96875 L 2.5 -3.96875 L 2.53125 -3.125 L 2.296875 -3.125 L 2.265625 -3.296875 C 2.253906 -3.378906 2.226562 -3.4375 2.1875 -3.46875 C 2.15625 -3.507812 2.082031 -3.53125 1.96875 -3.53125 L 0.890625 -3.53125 L 0.78125 -2.296875 C 0.84375 -2.316406 0.925781 -2.335938 1.03125 -2.359375 C 1.132812 -2.378906 1.269531 -2.390625 1.4375 -2.390625 C 1.675781 -2.390625 1.890625 -2.34375 2.078125 -2.25 C 2.273438 -2.164062 2.425781 -2.035156 2.53125 -1.859375 C 2.644531 -1.691406 2.703125 -1.476562 2.703125 -1.21875 C 2.703125 -0.957031 2.648438 -0.734375 2.546875 -0.546875 C 2.441406 -0.359375 2.285156 -0.207031 2.078125 -0.09375 C 1.878906 0.0078125 1.640625 0.0625 1.359375 0.0625 Z "/>
</g>
<g id="glyph-0-1">
<path d="M 1.265625 0.0625 C 1.054688 0.0625 0.890625 0.0390625 0.765625 0 C 0.648438 -0.0507812 0.566406 -0.113281 0.515625 -0.1875 C 0.472656 -0.257812 0.453125 -0.335938 0.453125 -0.421875 C 0.453125 -0.484375 0.46875 -0.535156 0.5 -0.578125 C 0.539062 -0.628906 0.582031 -0.664062 0.625 -0.6875 C 0.675781 -0.570312 0.75 -0.46875 0.84375 -0.375 C 0.945312 -0.289062 1.085938 -0.25 1.265625 -0.25 C 1.578125 -0.25 1.804688 -0.382812 1.953125 -0.65625 C 2.097656 -0.925781 2.179688 -1.34375 2.203125 -1.90625 C 2.117188 -1.8125 2.007812 -1.722656 1.875 -1.640625 C 1.738281 -1.566406 1.570312 -1.53125 1.375 -1.53125 C 1.050781 -1.53125 0.785156 -1.625 0.578125 -1.8125 C 0.378906 -2 0.28125 -2.28125 0.28125 -2.65625 C 0.28125 -2.925781 0.328125 -3.160156 0.421875 -3.359375 C 0.515625 -3.566406 0.648438 -3.726562 0.828125 -3.84375 C 1.003906 -3.96875 1.21875 -4.03125 1.46875 -4.03125 C 1.726562 -4.03125 1.953125 -3.960938 2.140625 -3.828125 C 2.335938 -3.703125 2.488281 -3.5 2.59375 -3.21875 C 2.707031 -2.945312 2.765625 -2.59375 2.765625 -2.15625 C 2.765625 -1.863281 2.738281 -1.582031 2.6875 -1.3125 C 2.632812 -1.050781 2.546875 -0.816406 2.421875 -0.609375 C 2.296875 -0.398438 2.140625 -0.234375 1.953125 -0.109375 C 1.765625 0.00390625 1.535156 0.0625 1.265625 0.0625 Z M 1.5 -1.859375 C 1.6875 -1.859375 1.835938 -1.898438 1.953125 -1.984375 C 2.066406 -2.078125 2.148438 -2.1875 2.203125 -2.3125 C 2.191406 -2.800781 2.117188 -3.15625 1.984375 -3.375 C 1.859375 -3.601562 1.6875 -3.71875 1.46875 -3.71875 C 1.28125 -3.71875 1.128906 -3.628906 1.015625 -3.453125 C 0.910156 -3.285156 0.859375 -3.039062 0.859375 -2.71875 C 0.859375 -2.414062 0.910156 -2.195312 1.015625 -2.0625 C 1.117188 -1.925781 1.28125 -1.859375 1.5 -1.859375 Z "/>
</g>
</g>
</defs>
<g fill="rgb(100%, 100%, 0%)" fill-opacity="1">
<use xlink:href="#glyph-0-0" x="30" y="25.939453"/>
<use xlink:href="#glyph-0-1" x="33" y="25.939453"/>
</g>
</svg>
